0
SECTION
2
HEADER
9
$INSUNITS
70
4
9
$ACADVER
1
AC1014
9
$HANDSEED
5
FFFF
0
ENDSEC
0
SECTION
2
TABLES
0
TABLE
2
VPORT
5
8
100
AcDbSymbolTable
0
ENDTAB
0
TABLE
2
LTYPE
5
5
100
AcDbSymbolTable
0
LTYPE
5
14
100
AcDbSymbolTableRecord
100
AcDbLinetypeTableRecord
2
BYBLOCK
70
0
0
LTYPE
5
15
100
AcDbSymbolTableRecord
100
AcDbLinetypeTableRecord
2
BYLAYER
70
0
0
ENDTAB
0
TABLE
2
LAYER
5
2
100
AcDbSymbolTable
70
2
0
LAYER
5
50
100
AcDbSymbolTableRecord
100
AcDbLayerTableRecord
2
0
70
0
6
CONTINUOUS
0
ENDTAB
0
TABLE
2
STYLE
5
3
100
AcDbSymbolTable
70
1
0
STYLE
5
11
100
AcDbSymbolTableRecord
100
AcDbTextStyleTableRecord
2
STANDARD
70
0
0
ENDTAB
0
TABLE
2
VIEW
5
6
100
AcDbSymbolTable
70
0
0
ENDTAB
0
TABLE
2
UCS
5
7
100
AcDbSymbolTable
70
0
0
ENDTAB
0
TABLE
2
APPID
5
9
100
AcDbSymbolTable
70
2
0
APPID
5
12
100
AcDbSymbolTableRecord
100
AcDbRegAppTableRecord
2
ACAD
70
0
0
ENDTAB
0
TABLE
2
DIMSTYLE
5
A
100
AcDbSymbolTable
70
1
0
ENDTAB
0
TABLE
2
BLOCK_RECORD
5
1
100
AcDbSymbolTable
70
1
0
BLOCK_RECORD
5
1F
100
AcDbSymbolTableRecord
100
AcDbBlockTableRecord
2
*MODEL_SPACE
0
BLOCK_RECORD
5
1B
100
AcDbSymbolTableRecord
100
AcDbBlockTableRecord
2
*PAPER_SPACE
0
ENDTAB
0
ENDSEC
0
SECTION
2
BLOCKS
0
BLOCK
5
20
100
AcDbEntity
100
AcDbBlockBegin
2
*MODEL_SPACE
0
ENDBLK
5
21
100
AcDbEntity
100
AcDbBlockEnd
0
BLOCK
5
1C
100
AcDbEntity
100
AcDbBlockBegin
2
*PAPER_SPACE
0
ENDBLK
5
1D
100
AcDbEntity
100
AcDbBlockEnd
0
ENDSEC
0
SECTION
2
ENTITIES
0
LINE
5
100
100
AcDbEntity
8
0
100
AcDbLine
10
210
20
-20
30
0
11
209.99999974051664
21
-24.025167097616933
31
0
0
LINE
5
101
100
AcDbEntity
8
0
100
AcDbLine
10
-209.99999974051676
20
-24.025167097029577
30
0
11
-210
21
-20
31
0
0
SPLINE
5
102
100
AcDbEntity
8
0
100
AcDbSpline
70
4
71
5
72
121
73
115
74
0
42
0.000000001
43
0.0000000001
44
0.0000000001
40
0
40
0
40
0
40
0
40
0
40
0
40
0.0090909090909090905
40
0.018181818181818181
40
0.027272727272727271
40
0.036363636363636362
40
0.045454545454545456
40
0.05454545454545455
40
0.063636363636363644
40
0.072727272727272738
40
0.081818181818181832
40
0.090909090909090925
40
0.10000000000000002
40
0.10909090909090911
40
0.11818181818181821
40
0.12727272727272729
40
0.13636363636363638
40
0.14545454545454548
40
0.15454545454545457
40
0.16363636363636366
40
0.17272727272727276
40
0.18181818181818185
40
0.19090909090909094
40
0.20000000000000004
40
0.20909090909090913
40
0.21818181818181823
40
0.22727272727272732
40
0.23636363636363641
40
0.24545454545454551
40
0.25454545454545457
40
0.26363636363636367
40
0.27272727272727276
40
0.28181818181818186
40
0.29090909090909095
40
0.30000000000000004
40
0.30909090909090914
40
0.31818181818181823
40
0.32727272727272733
40
0.33636363636363642
40
0.34545454545454551
40
0.35454545454545461
40
0.3636363636363637
40
0.3727272727272728
40
0.38181818181818189
40
0.39090909090909098
40
0.40000000000000008
40
0.40909090909090917
40
0.41818181818181827
40
0.42727272727272736
40
0.43636363636363645
40
0.44545454545454555
40
0.45454545454545464
40
0.46363636363636374
40
0.47272727272727283
40
0.48181818181818192
40
0.49090909090909102
40
0.50000000000000011
40
0.50909090909090915
40
0.51818181818181819
40
0.52727272727272723
40
0.53636363636363626
40
0.5454545454545453
40
0.55454545454545434
40
0.56363636363636338
40
0.57272727272727242
40
0.58181818181818146
40
0.5909090909090905
40
0.59999999999999953
40
0.60909090909090857
40
0.61818181818181761
40
0.62727272727272665
40
0.63636363636363569
40
0.64545454545454473
40
0.65454545454545376
40
0.6636363636363628
40
0.67272727272727184
40
0.68181818181818088
40
0.69090909090908992
40
0.69999999999999896
40
0.70909090909090799
40
0.71818181818181703
40
0.72727272727272607
40
0.73636363636363511
40
0.74545454545454415
40
0.75454545454545319
40
0.76363636363636223
40
0.77272727272727126
40
0.7818181818181803
40
0.79090909090908934
40
0.79999999999999838
40
0.80909090909090742
40
0.81818181818181646
40
0.82727272727272549
40
0.83636363636363453
40
0.84545454545454357
40
0.85454545454545261
40
0.86363636363636165
40
0.87272727272727069
40
0.88181818181817972
40
0.89090909090908876
40
0.8999999999999978
40
0.90909090909090684
40
0.91818181818181588
40
0.92727272727272492
40
0.93636363636363396
40
0.94545454545454299
40
0.95454545454545203
40
0.96363636363636107
40
0.97272727272727011
40
0.98181818181817915
40
0.99090909090908819
40
1
40
1
40
1
40
1
40
1
40
1
41
1
41
1
41
1
41
1
41
1
41
1
41
1
41
1
41
1
41
1
41
1
41
1
41
1
41
1
41
1
41
1
41
1
41
1
41
1
41
1
41
1
41
1
41
1
41
1
41
1
41
1
41
1
41
1
41
1
41
1
41
1
41
1
41
1
41
1
41
1
41
1
41
1
41
1
41
1
41
1
41
1
41
1
41
1
41
1
41
1
41
1
41
1
41
1
41
1
41
1
41
1
41
1
41
1
41
1
41
1
41
1
41
1
41
1
41
1
41
1
41
1
41
1
41
1
41
1
41
1
41
1
41
1
41
1
41
1
41
1
41
1
41
1
41
1
41
1
41
1
41
1
41
1
41
1
41
1
41
1
41
1
41
1
41
1
41
1
41
1
41
1
41
1
41
1
41
1
41
1
41
1
41
1
41
1
41
1
41
1
41
1
41
1
41
1
41
1
41
1
41
1
41
1
41
1
41
1
41
1
41
1
41
1
41
1
41
1
41
1
41
1
41
1
41
1
41
1
41
1
10
-180
20
-40
30
0
10
-180.9277584263107
20
-40.637517528798988
30
0
10
-182.7762952931202
20
-41.76820311724147
30
0
10
-185.52817338727078
20
-43.03117176884016
30
0
10
-189.15537359805739
20
-43.848992146767984
30
0
10
-193.59946633079275
20
-43.451662392822271
30
0
10
-197.89176971509727
20
-41.709606983414488
30
0
10
-201.91217920030385
20
-38.770257235623298
30
0
10
-205.45219281225198
20
-34.887568686165984
30
0
10
-208.23296472355116
20
-30.41295596717509
30
0
10
-209.97671960796038
20
-25.737350668514814
30
0
10
-210.46817983511409
20
-21.244250952320979
30
0
10
-209.61170890429426
20
-17.262004883064954
30
0
10
-207.51141491053542
20
-14.00710077444451
30
0
10
-204.43007459604985
20
-11.57995906627195
30
0
10
-200.68628634617386
20
-9.9866367012321984
30
0
10
-196.57555139678919
20
-9.1525526180872205
30
0
10
-192.2704966313029
20
-8.9387109685586648
30
0
10
-187.83886013206157
20
-9.1653807578156421
30
0
10
-183.27946594222459
20
-9.6387315768733757
30
0
10
-178.55092447234989
20
-10.17478891389751
30
0
10
-173.60581028110474
20
-10.628213309105606
30
0
10
-168.41449427798722
20
-10.906931733228923
30
0
10
-162.96869783853225
20
-10.954546365515917
30
0
10
-157.28860319244845
20
-10.739547458964658
30
0
10
-151.42945097108171
20
-10.241136473493057
30
0
10
-145.48633610898213
20
-9.4381195855425695
30
0
10
-139.6050699298722
20
-8.2923133583502331
30
0
10
-133.95490320095738
20
-6.7624514911036062
30
0
10
-128.69007509576156
20
-4.8268324904950299
30
0
10
-123.91464428054576
20
-2.5033880302787588
30
0
10
-119.64695172742486
20
0.12988836555673022
30
0
10
-115.7817736166193
20
2.9128959913239068
30
0
10
-112.06017280901547
20
5.5868857453782015
30
0
10
-108.16085213379361
20
7.8643962397023683
30
0
10
-103.78846354352527
20
9.4972228448834866
30
0
10
-98.756415216807113
20
10.340015384073933
30
0
10
-93.087715634348044
20
10.427840404431281
30
0
10
-87.058455505859655
20
10.009546181880024
30
0
10
-81.07148499443349
20
9.4506589741118301
30
0
10
-75.56306867840668
20
9.1613474512771162
30
0
10
-70.891384562339823
20
9.5111337543014702
30
0
10
-67.244656098946137
20
10.757066829054082
30
0
10
-64.510238547564171
20
12.946034442093515
30
0
10
-62.341324845428815
20
15.946586526272119
30
0
10
-60.300725531249491
20
19.530709079121127
30
0
10
-57.975259731142906
20
23.43731565414668
30
0
10
-55.113278284861906
20
27.448401262758836
30
0
10
-51.602275571911775
20
31.389505047990312
30
0
10
-47.432306309294191
20
35.123645470303394
30
0
10
-42.663518156787049
20
38.547520631917024
30
0
10
-37.393988408211953
20
41.586772801207673
30
0
10
-31.72256420712138
20
44.191685906047027
30
0
10
-25.733343479604525
20
46.33265938972982
30
0
10
-19.501875184064538
20
47.995707347618044
30
0
10
-13.095408298877317
20
49.177947917680797
30
0
10
-6.5755690470628068
20
49.883104992200231
30
0
10
2.4109186869125665e-13
20
50.117009766216299
30
0
10
6.5755690470625083
20
49.883104992198433
30
0
10
13.095408298875608
20
49.177947917678054
30
0
10
19.501875184061753
20
47.995707347614797
30
0
10
25.733343479601785
20
46.332659389726878
30
0
10
31.72256420711976
20
44.191685906044981
30
0
10
37.393988408211662
20
41.586772801207005
30
0
10
42.663518156787319
20
38.547520631917827
30
0
10
47.432306309294077
20
35.123645470305206
30
0
10
51.602275571911427
20
31.389505047992468
30
0
10
55.113278284861458
20
27.448401262760598
30
0
10
57.975259731142536
20
23.43731565414755
30
0
10
60.300725531249391
20
19.530709079121131
30
0
10
62.341324845428986
20
15.946586526271656
30
0
10
64.510238547564214
20
12.94603444209298
30
0
10
67.244656098945882
20
10.757066829053841
30
0
10
70.891384562339454
20
9.5111337543016656
30
0
10
75.563068678406765
20
9.1613474512776811
30
0
10
81.071484994433987
20
9.4506589741125477
30
0
10
87.058455505860749
20
10.009546181880715
30
0
10
93.087715634349223
20
10.427840404431745
30
0
10
98.756415216807369
20
10.340015384074103
30
0
10
103.78846354352318
20
9.4972228448832965
30
0
10
108.16085213378891
20
7.8643962397018905
30
0
10
112.06017280900896
20
5.5868857453776783
30
0
10
115.78177361661362
20
2.9128959913236772
30
0
10
119.64695172742351
20
0.12988836555704636
30
0
10
123.91464428055076
20
-2.5033880302778568
30
0
10
128.6900750957721
20
-4.8268324904937714
30
0
10
133.9549032009719
20
-6.7624514911023983
30
0
10
139.60506992988633
20
-8.2923133583493964
30
0
10
145.48633610899051
20
-9.4381195855422675
30
0
10
151.42945097107832
20
-10.241136473493064
30
0
10
157.288603192431
20
-10.739547458964607
30
0
10
162.96869783850343
20
-10.954546365515561
30
0
10
168.41449427795496
20
-10.906931733228317
30
0
10
173.60581028107904
20
-10.628213309105012
30
0
10
178.55092447234131
20
-10.174788913897391
30
0
10
183.2794659422384
20
-9.6387315768739015
30
0
10
187.83886013209482
20
-9.1653807578166617
30
0
10
192.27049663134306
20
-8.9387109685597768
30
0
10
196.57555139681662
20
-9.1525526180878778
30
0
10
200.68628634616994
20
-9.986636701231852
30
0
10
204.43007459600602
20
-11.57995906627028
30
0
10
207.51141491046738
20
-14.00710077444192
30
0
10
209.61170890424259
20
-17.262004883062598
30
0
10
210.46817983513142
20
-21.244250952320378
30
0
10
209.97671960808134
20
-25.737350668517088
30
0
10
208.23296472375989
20
-30.412955967180007
30
0
10
205.4521928124733
20
-34.887568686171313
30
0
10
201.91217920042007
20
-38.77025723562577
30
0
10
197.89176971498892
20
-41.709606983410566
30
0
10
193.59946633041204
20
-43.451662392810881
30
0
10
189.15537359749123
20
-43.848992146752309
30
0
10
185.52817338674501
20
-43.03117176882661
30
0
10
182.77629529278684
20
-41.768203117233334
30
0
10
180.92775842618639
20
-40.637517528796053
30
0
10
180
20
-40
30
0
0
CIRCLE
5
103
100
AcDbEntity
8
0
100
AcDbCircle
10
0
20
30
30
0
40
5
210
0
220
0
230
1
0
SPLINE
5
104
100
AcDbEntity
8
0
100
AcDbSpline
70
4
71
5
72
191
73
185
74
0
42
0.000000001
43
0.0000000001
44
0.0000000001
40
0
40
0
40
0
40
0
40
0
40
0
40
0.0055555555555555558
40
0.011111111111111112
40
0.016666666666666666
40
0.022222222222222223
40
0.02777777777777778
40
0.033333333333333333
40
0.03888888888888889
40
0.044444444444444446
40
0.050000000000000003
40
0.055555555555555559
40
0.061111111111111116
40
0.066666666666666666
40
0.072222222222222215
40
0.077777777777777765
40
0.083333333333333315
40
0.088888888888888865
40
0.094444444444444414
40
0.099999999999999964
40
0.10555555555555551
40
0.11111111111111106
40
0.11666666666666661
40
0.12222222222222216
40
0.12777777777777771
40
0.13333333333333328
40
0.13888888888888884
40
0.1444444444444444
40
0.14999999999999997
40
0.15555555555555553
40
0.16111111111111109
40
0.16666666666666666
40
0.17222222222222222
40
0.17777777777777778
40
0.18333333333333335
40
0.18888888888888891
40
0.19444444444444448
40
0.20000000000000004
40
0.2055555555555556
40
0.21111111111111117
40
0.21666666666666673
40
0.22222222222222229
40
0.22777777777777786
40
0.23333333333333342
40
0.23888888888888898
40
0.24444444444444455
40
0.25000000000000011
40
0.25555555555555565
40
0.26111111111111118
40
0.26666666666666672
40
0.27222222222222225
40
0.27777777777777779
40
0.28333333333333333
40
0.28888888888888886
40
0.2944444444444444
40
0.29999999999999993
40
0.30555555555555547
40
0.31111111111111101
40
0.31666666666666654
40
0.32222222222222208
40
0.32777777777777761
40
0.33333333333333315
40
0.33888888888888868
40
0.34444444444444422
40
0.34999999999999976
40
0.35555555555555529
40
0.36111111111111083
40
0.36666666666666636
40
0.3722222222222219
40
0.37777777777777743
40
0.38333333333333297
40
0.38888888888888851
40
0.39444444444444404
40
0.39999999999999958
40
0.40555555555555511
40
0.41111111111111065
40
0.41666666666666619
40
0.42222222222222172
40
0.42777777777777726
40
0.43333333333333279
40
0.43888888888888833
40
0.44444444444444386
40
0.4499999999999994
40
0.45555555555555494
40
0.46111111111111047
40
0.46666666666666601
40
0.47222222222222154
40
0.47777777777777708
40
0.48333333333333262
40
0.48888888888888815
40
0.49444444444444369
40
0.49999999999999922
40
0.50555555555555476
40
0.51111111111111029
40
0.51666666666666583
40
0.52222222222222137
40
0.5277777777777769
40
0.53333333333333244
40
0.53888888888888797
40
0.54444444444444351
40
0.54999999999999905
40
0.55555555555555458
40
0.56111111111111012
40
0.56666666666666565
40
0.57222222222222119
40
0.57777777777777672
40
0.58333333333333226
40
0.5888888888888878
40
0.59444444444444333
40
0.59999999999999887
40
0.6055555555555544
40
0.61111111111110994
40
0.61666666666666548
40
0.62222222222222101
40
0.62777777777777655
40
0.63333333333333208
40
0.63888888888888762
40
0.64444444444444315
40
0.64999999999999869
40
0.65555555555555423
40
0.66111111111110976
40
0.6666666666666653
40
0.67222222222222083
40
0.67777777777777637
40
0.6833333333333319
40
0.68888888888888744
40
0.69444444444444298
40
0.69999999999999851
40
0.70555555555555405
40
0.71111111111110958
40
0.71666666666666512
40
0.72222222222222066
40
0.72777777777777619
40
0.73333333333333173
40
0.73888888888888726
40
0.7444444444444428
40
0.74999999999999833
40
0.75555555555555387
40
0.76111111111110941
40
0.76666666666666494
40
0.77222222222222048
40
0.77777777777777601
40
0.78333333333333155
40
0.78888888888888709
40
0.79444444444444262
40
0.79999999999999816
40
0.80555555555555369
40
0.81111111111110923
40
0.81666666666666476
40
0.8222222222222203
40
0.82777777777777584
40
0.83333333333333137
40
0.83888888888888691
40
0.84444444444444244
40
0.84999999999999798
40
0.85555555555555352
40
0.86111111111110905
40
0.86666666666666459
40
0.87222222222222012
40
0.87777777777777566
40
0.88333333333333119
40
0.88888888888888673
40
0.89444444444444227
40
0.8999999999999978
40
0.90555555555555334
40
0.91111111111110887
40
0.91666666666666441
40
0.92222222222221995
40
0.92777777777777548
40
0.93333333333333102
40
0.93888888888888655
40
0.94444444444444209
40
0.94999999999999762
40
0.95555555555555316
40
0.9611111111111087
40
0.96666666666666423
40
0.97222222222221977
40
0.9777777777777753
40
0.98333333333333084
40
0.98888888888888637
40
0.99444444444444191
40
1
40
1
40
1
40
1
40
1
40
1
41
1
41
1
41
1
41
1
41
1
41
1
41
1
41
1
41
1
41
1
41
1
41
1
41
1
41
1
41
1
41
1
41
1
41
1
41
1
41
1
41
1
41
1
41
1
41
1
41
1
41
1
41
1
41
1
41
1
41
1
41
1
41
1
41
1
41
1
41
1
41
1
41
1
41
1
41
1
41
1
41
1
41
1
41
1
41
1
41
1
41
1
41
1
41
1
41
1
41
1
41
1
41
1
41
1
41
1
41
1
41
1
41
1
41
1
41
1
41
1
41
1
41
1
41
1
41
1
41
1
41
1
41
1
41
1
41
1
41
1
41
1
41
1
41
1
41
1
41
1
41
1
41
1
41
1
41
1
41
1
41
1
41
1
41
1
41
1
41
1
41
1
41
1
41
1
41
1
41
1
41
1
41
1
41
1
41
1
41
1
41
1
41
1
41
1
41
1
41
1
41
1
41
1
41
1
41
1
41
1
41
1
41
1
41
1
41
1
41
1
41
1
41
1
41
1
41
1
41
1
41
1
41
1
41
1
41
1
41
1
41
1
41
1
41
1
41
1
41
1
41
1
41
1
41
1
41
1
41
1
41
1
41
1
41
1
41
1
41
1
41
1
41
1
41
1
41
1
41
1
41
1
41
1
41
1
41
1
41
1
41
1
41
1
41
1
41
1
41
1
41
1
41
1
41
1
41
1
41
1
41
1
41
1
41
1
41
1
41
1
41
1
41
1
41
1
41
1
41
1
41
1
41
1
41
1
41
1
41
1
41
1
41
1
41
1
41
1
41
1
41
1
41
1
41
1
41
1
41
1
41
1
41
1
41
1
41
1
41
1
10
24.862943103871803
20
46.460659959361934
30
0
10
25.486886242566381
20
46.077086647035266
30
0
10
26.708971661477811
20
45.291199797547762
30
0
10
28.464688928223289
20
44.056150693606725
30
0
10
30.650887635750493
20
42.29695924739864
30
0
10
33.111614406961699
20
39.919283549266588
30
0
10
35.259456853327784
20
37.388918727014982
30
0
10
37.010390959064033
20
34.758429053021878
30
0
10
38.229458418833403
20
32.114344589378021
30
0
10
38.701551766188608
20
29.589353255013524
30
0
10
38.209016700051905
20
27.350154867933792
30
0
10
36.649187777346896
20
25.575090606812779
30
0
10
34.147317396769985
20
24.435150972822647
30
0
10
31.148947023458916
20
24.073351732489581
30
0
10
28.219932840590282
20
24.582174446186372
30
0
10
25.867843549830635
20
25.980770736446047
30
0
10
24.356890551113249
20
28.192581323435402
30
0
10
23.520917935357613
20
31.021873222669548
30
0
10
22.912300794264524
20
34.195046587505722
30
0
10
21.958650677852223
20
37.403351875669358
30
0
10
20.114279285104285
20
40.344546996981464
30
0
10
17.019171298381636
20
42.76622909272006
30
0
10
12.639650242768287
20
44.504951700415596
30
0
10
7.1854807737993713
20
45.473574602758376
30
0
10
1.0417287679073488
20
45.652012271216876
30
0
10
-5.3051174811357971
20
45.076718086328412
30
0
10
-11.338140187520608
20
43.830696735327017
30
0
10
-16.583191905991846
20
42.03335060639084
30
0
10
-20.678875442630726
20
39.830289313381755
30
0
10
-23.453335495978578
20
37.383437370508183
30
0
10
-24.982729712746959
20
34.860278675493639
30
0
10
-25.483886822364511
20
32.418007637376334
30
0
10
-25.215077925496587
20
30.186565855422916
30
0
10
-24.384314945364419
20
28.255195299138798
30
0
10
-23.027764973282704
20
26.64976678939729
30
0
10
-21.152009528381313
20
25.382279760897166
30
0
10
-18.868041748732413
20
24.493915765980923
30
0
10
-16.615310515579097
20
24.132180040439479
30
0
10
-15.026735072702644
20
24.496942828804254
30
0
10
-14.518738427224289
20
25.689369323992992
30
0
10
-14.827785089630371
20
27.536353218486429
30
0
10
-15.191416716708822
20
29.671111624715536
30
0
10
-14.838835061320967
20
31.733823500091344
30
0
10
-13.440821918429771
20
33.560436488934442
30
0
10
-11.058013921559116
20
35.139025712555004
30
0
10
-7.9630767456602918
20
36.50754180738388
30
0
10
-4.5172769938725077
20
37.680666407640992
30
0
10
-1.0019682909888274
20
38.544309205650919
30
0
10
2.3890964655544007
20
38.891570061194983
30
0
10
5.5119373563768423
20
38.500140159928534
30
0
10
8.2478469854835907
20
37.199482121678201
30
0
10
10.476588641607778
20
34.93468946297866
30
0
10
12.042327425931026
20
31.851128504835501
30
0
10
12.771206257607329
20
28.256126286605653
30
0
10
12.508182025159403
20
24.53525953866917
30
0
10
11.149390089502791
20
21.080627916640488
30
0
10
8.6722225230827608
20
18.220610663332305
30
0
10
5.1767724959101544
20
16.132839238353665
30
0
10
0.87550461325022444
20
14.837413524419997
30
0
10
-3.9523375024709657
20
14.245369843699564
30
0
10
-8.9961887324008405
20
14.190973513513727
30
0
10
-13.95293439853123
20
14.469923408121183
30
0
10
-18.566244056008856
20
14.876736320371675
30
0
10
-22.661027660019194
20
15.238443519181498
30
0
10
-26.191721454703519
20
15.460058557511678
30
0
10
-29.227667783935448
20
15.515738205338316
30
0
10
-31.903207775457389
20
15.410198060685612
30
0
10
-34.377925371106073
20
15.147334149598128
30
0
10
-36.794282660683386
20
14.700211626229553
30
0
10
-39.2323876699338
20
13.969271479091338
30
0
10
-41.688368057170308
20
12.818702682446554
30
0
10
-44.055965697914232
20
11.144039188339912
30
0
10
-46.116349063092756
20
8.9215874274556111
30
0
10
-47.502248631612652
20
6.2839993628804685
30
0
10
-47.764607887739594
20
3.5098353420842758
30
0
10
-46.552064061152585
20
0.92977224024973504
30
0
10
-43.737641364721213
20
-1.1385670128948484
30
0
10
-39.617466582875636
20
-2.4809368203534219
30
0
10
-34.877446489777185
20
-3.0124568896768098
30
0
10
-30.344802312732568
20
-2.7482136218778033
30
0
10
-26.802214691274031
20
-1.7886786534465395
30
0
10
-24.768268451044896
20
-0.29948876638145872
30
0
10
-24.311184684953911
20
1.5072575882033417
30
0
10
-24.797861381309797
20
3.3899017374142648
30
0
10
-25.235816478188575
20
5.1231465557115108
30
0
10
-24.704253555427481
20
6.5493169940271976
30
0
10
-22.741535437791704
20
7.6257135382213272
30
0
10
-19.249652080553538
20
8.3922494805552716
30
0
10
-14.405742909103814
20
8.9405947861212951
30
0
10
-8.5724926255675911
20
9.3834056162870372
30
0
10
-2.206434952680004
20
9.822118136635865
30
0
10
4.2267404539601605
20
10.318642499987682
30
0
10
10.355286452328301
20
10.857052668460557
30
0
10
15.917790583637192
20
11.352107327171584
30
0
10
20.735627959274826
20
11.681397024582932
30
0
10
24.699015675859066
20
11.710319683245096
30
0
10
27.747814717369774
20
11.319516859741421
30
0
10
29.853725367532103
20
10.432437574559925
30
0
10
31.003936069206588
20
9.0400816329380334
30
0
10
31.178890024966623
20
7.2341290932933155
30
0
10
30.365795388178512
20
5.1903705169503773
30
0
10
28.583042490376261
20
3.1353596413032774
30
0
10
25.902933011512317
20
1.319466145735134
30
0
10
22.446369405857567
20
-0.023361560498683112
30
0
10
18.374012713031949
20
-0.71507540526245883
30
0
10
13.878876016537786
20
-0.67489717153471396
30
0
10
9.178069751745122
20
0.043565082205878347
30
0
10
4.505508236471325
20
1.2050693100587848
30
0
10
0.10239529127457683
20
2.3748695814135377
30
0
10
-3.8041812005097726
20
3.0564777392265414
30
0
10
-7.0203015671431395
20
2.8045017780868537
30
0
10
-9.4068985026443723
20
1.3571112992978986
30
0
10
-10.896399534878132
20
-1.2626547370289745
30
0
10
-11.52133254711792
20
-4.5754019901977685
30
0
10
-11.396545115253263
20
-7.7414106830813942
30
0
10
-10.654339821092577
20
-9.918254376213719
30
0
10
-9.4014404613569802
20
-10.50946798435338
30
0
10
-7.646788965224407
20
-9.5414475039000344
30
0
10
-5.3256206004869568
20
-7.6429339480688139
30
0
10
-2.413953893126898
20
-5.6742616803248778
30
0
10
0.99359497602172131
20
-4.473786036644281
30
0
10
4.5648359644466971
20
-4.5111175179381267
30
0
10
7.7130837610087752
20
-5.7262142233066671
30
0
10
9.818462889763115
20
-7.7727599013652036
30
0
10
10.399247588330187
20
-10.181221461850479
30
0
10
9.311159134274158
20
-12.559825429469903
30
0
10
6.9121443240368112
20
-14.762205948084542
30
0
10
3.8785995921440826
20
-16.793385484121572
30
0
10
1.0372734008426128
20
-18.726601997072816
30
0
10
-0.79970518446878103
20
-20.622414316596725
30
0
10
-1.0222794100258639
20
-22.432080651380065
30
0
10
0.66955386146517804
20
-23.956331970518015
30
0
10
4.3343175044849067
20
-24.926439002484948
30
0
10
9.8212008023749142
20
-25.060852661378949
30
0
10
16.816731491930913
20
-24.129950587675182
30
0
10
24.885122578575452
20
-22.021072029391703
30
0
10
33.511503163500507
20
-18.794721997714657
30
0
10
42.143405310256952
20
-14.765963284330274
30
0
10
50.235027825966121
20
-10.498176077174096
30
0
10
57.297331829424117
20
-6.6636287863632369
30
0
10
62.943346312884991
20
-3.9414345816878744
30
0
10
66.942780700587704
20
-2.8890601372090123
30
0
10
69.255814775720893
20
-3.8511617137231511
30
0
10
70.11504926462807
20
-6.7918961081998255
30
0
10
69.995151504183497
20
-11.301470307656309
30
0
10
69.859564475826019
20
-16.174906728546208
30
0
10
70.353389852599676
20
-20.613848034468671
30
0
10
71.771169754046596
20
-24.270154020982389
30
0
10
74.169239238938005
20
-27.06406766181982
30
0
10
77.412493874152801
20
-29.102577610397844
30
0
10
81.248008237975796
20
-30.560884724405085
30
0
10
85.370721799559405
20
-31.564136001642801
30
0
10
89.480326862773282
20
-32.121578785919624
30
0
10
93.30846318445154
20
-32.187735302243816
30
0
10
96.651458526309497
20
-31.694940823450178
30
0
10
99.403495757157231
20
-30.599292697778093
30
0
10
101.58346189901462
20
-28.916429223830256
30
0
10
103.38021836933893
20
-26.773005541358728
30
0
10
105.10323971384123
20
-24.388762541652241
30
0
10
107.0930280047379
20
-22.029751881679008
30
0
10
109.64348268343228
20
-19.970476453337074
30
0
10
112.92146738603735
20
-18.453016295404311
30
0
10
116.88166091327523
20
-17.645584393491525
30
0
10
121.32209638130485
20
-17.64404923390039
30
0
10
125.94897656923168
20
-18.476166554838692
30
0
10
130.4368983880627
20
-20.105042556415565
30
0
10
134.49364467591141
20
-22.432344379043307
30
0
10
137.91688349486117
20
-25.302918329447849
30
0
10
140.66935960279449
20
-28.505578157018206
30
0
10
142.89234554714855
20
-31.7870995811429
30
0
10
144.82856643425868
20
-34.886070536604095
30
0
10
146.768149790498
20
-37.561211385354682
30
0
10
148.98274106634273
20
-39.623512418250449
30
0
10
151.67056771483524
20
-40.963091396321431
30
0
10
154.88190723416034
20
-41.587577015343314
30
0
10
158.52746299931138
20
-41.609276174480847
30
0
10
162.4301690154289
20
-41.205245555026124
30
0
10
166.36352147822095
20
-40.585786841174965
30
0
10
170.09548930100775
20
-39.959452730274279
30
0
10
173.43001212983378
20
-39.499564368436289
30
0
10
176.2495849430282
20
-39.310037147346463
30
0
10
178.04632210935338
20
-39.416245758118116
30
0
10
179.12695745388643
20
-39.648703099925001
30
0
10
179.72875654685663
20
-39.871582987959677
30
0
10
180
20
-40
30
0
0
SPLINE
5
105
100
AcDbEntity
8
0
100
AcDbSpline
70
4
71
5
72
116
73
110
74
0
42
0.000000001
43
0.0000000001
44
0.0000000001
40
0
40
0
40
0
40
0
40
0
40
0
40
0.0095238095238095247
40
0.019047619047619049
40
0.028571428571428574
40
0.038095238095238099
40
0.047619047619047623
40
0.057142857142857148
40
0.06666666666666668
40
0.076190476190476197
40
0.085714285714285715
40
0.095238095238095233
40
0.10476190476190475
40
0.11428571428571427
40
0.12380952380952379
40
0.1333333333333333
40
0.14285714285714282
40
0.15238095238095234
40
0.16190476190476186
40
0.17142857142857137
40
0.18095238095238089
40
0.19047619047619041
40
0.19999999999999993
40
0.20952380952380945
40
0.21904761904761896
40
0.22857142857142848
40
0.238095238095238
40
0.24761904761904752
40
0.25714285714285706
40
0.26666666666666661
40
0.27619047619047615
40
0.2857142857142857
40
0.29523809523809524
40
0.30476190476190479
40
0.31428571428571433
40
0.32380952380952388
40
0.33333333333333343
40
0.34285714285714297
40
0.35238095238095252
40
0.36190476190476206
40
0.37142857142857161
40
0.38095238095238115
40
0.3904761904761907
40
0.40000000000000024
40
0.40952380952380979
40
0.41904761904761934
40
0.42857142857142888
40
0.43809523809523843
40
0.44761904761904797
40
0.45714285714285752
40
0.46666666666666706
40
0.47619047619047661
40
0.48571428571428615
40
0.4952380952380957
40
0.50476190476190519
40
0.51428571428571468
40
0.52380952380952417
40
0.53333333333333366
40
0.54285714285714315
40
0.55238095238095264
40
0.56190476190476213
40
0.57142857142857162
40
0.58095238095238111
40
0.5904761904761906
40
0.60000000000000009
40
0.60952380952380958
40
0.61904761904761907
40
0.62857142857142856
40
0.63809523809523805
40
0.64761904761904754
40
0.65714285714285703
40
0.66666666666666652
40
0.67619047619047601
40
0.6857142857142855
40
0.69523809523809499
40
0.70476190476190448
40
0.71428571428571397
40
0.72380952380952346
40
0.73333333333333295
40
0.74285714285714244
40
0.75238095238095193
40
0.76190476190476142
40
0.77142857142857091
40
0.7809523809523804
40
0.79047619047618989
40
0.79999999999999938
40
0.80952380952380887
40
0.81904761904761836
40
0.82857142857142785
40
0.83809523809523734
40
0.84761904761904683
40
0.85714285714285632
40
0.86666666666666581
40
0.8761904761904753
40
0.88571428571428479
40
0.89523809523809428
40
0.90476190476190377
40
0.91428571428571326
40
0.92380952380952275
40
0.93333333333333224
40
0.94285714285714173
40
0.95238095238095122
40
0.96190476190476071
40
0.9714285714285702
40
0.98095238095237969
40
0.99047619047618918
40
1
40
1
40
1
40
1
40
1
40
1
41
1
41
1
41
1
41
1
41
1
41
1
41
1
41
1
41
1
41
1
41
1
41
1
41
1
41
1
41
1
41
1
41
1
41
1
41
1
41
1
41
1
41
1
41
1
41
1
41
1
41
1
41
1
41
1
41
1
41
1
41
1
41
1
41
1
41
1
41
1
41
1
41
1
41
1
41
1
41
1
41
1
41
1
41
1
41
1
41
1
41
1
41
1
41
1
41
1
41
1
41
1
41
1
41
1
41
1
41
1
41
1
41
1
41
1
41
1
41
1
41
1
41
1
41
1
41
1
41
1
41
1
41
1
41
1
41
1
41
1
41
1
41
1
41
1
41
1
41
1
41
1
41
1
41
1
41
1
41
1
41
1
41
1
41
1
41
1
41
1
41
1
41
1
41
1
41
1
41
1
41
1
41
1
41
1
41
1
41
1
41
1
41
1
41
1
41
1
41
1
41
1
41
1
41
1
41
1
41
1
41
1
41
1
41
1
41
1
41
1
10
70.000000000000014
20
-10.000000000000004
30
0
10
67.742217033634546
20
-11.979422317972887
30
0
10
63.299208520085486
20
-15.774972942635168
30
0
10
56.852368015880508
20
-20.978416804114921
30
0
10
48.691989412252674
20
-26.936433498686633
30
0
10
39.216362398351087
20
-32.755961967380799
30
0
10
30.462431219556649
20
-36.964520802193192
30
0
10
22.423412590343055
20
-39.597239444127112
30
0
10
15.087561137728134
20
-40.713680123443069
30
0
10
8.4368588997200824
20
-40.404074712378758
30
0
10
2.4456511505819298
20
-38.795812524032023
30
0
10
-2.9206053644184338
20
-36.059398514547603
30
0
10
-7.7068694785950651
20
-32.415704024029147
30
0
10
-11.9694162309207
20
-28.140272351639059
30
0
10
-15.778281233284961
20
-23.574874280242263
30
0
10
-19.214311251712662
20
-19.113820210794277
30
0
10
-22.359275008878605
20
-15.158450239035155
30
0
10
-25.288025059987685
20
-12.080172129956182
30
0
10
-28.059206717580313
20
-10.179026961107052
30
0
10
-30.7080038114023
20
-9.6464091172633779
30
0
10
-33.234575777881766
20
-10.520453217748607
30
0
10
-35.605053558535317
20
-12.66185871211505
30
0
10
-37.788326221466249
20
-15.790680730154614
30
0
10
-39.787991264110779
20
-19.511685673403228
30
0
10
-41.673144389755748
20
-23.345552615641623
30
0
10
-43.617963065508647
20
-26.75364798036993
30
0
10
-45.82753061260162
20
-29.222730613735955
30
0
10
-48.440254108264334
20
-30.365047482255612
30
0
10
-51.454269954789709
20
-29.998017617090373
30
0
10
-54.606166370795208
20
-28.268551253816206
30
0
10
-57.417316723255894
20
-25.617445717720333
30
0
10
-59.415501430018416
20
-22.576620506937072
30
0
10
-60.303028467906159
20
-19.616390210144232
30
0
10
-60.161054087413646
20
-16.961068517745488
30
0
10
-59.596264584524945
20
-14.451247463599266
30
0
10
-59.385019257736921
20
-11.796795213375972
30
0
10
-60.19375107324143
20
-8.7720657490950469
30
0
10
-62.199140786197269
20
-5.4857108496865283
30
0
10
-65.001773413829667
20
-2.4333146248050443
30
0
10
-67.943046468587312
20
-0.25192179075850857
30
0
10
-70.322497888629428
20
0.4517333416770033
30
0
10
-71.659026922758841
20
-0.69419710877848939
30
0
10
-71.923077738551214
20
-3.6444661327475063
30
0
10
-71.397501379052798
20
-8.0573482899147191
30
0
10
-70.548627185602726
20
-13.406806364999271
30
0
10
-69.890583652461629
20
-19.099964106618597
30
0
10
-69.859949786424338
20
-24.586757533177131
30
0
10
-70.666497494710413
20
-29.487411122336336
30
0
10
-72.326543644437308
20
-33.583382614779289
30
0
10
-74.730379643545277
20
-36.782058594939272
30
0
10
-77.699820058947495
20
-39.090566662620809
30
0
10
-81.045331107136178
20
-40.585956384612615
30
0
10
-84.634203187772869
20
-41.386673863517018
30
0
10
-88.418043745768401
20
-41.624637958079319
30
0
10
-92.371037418551637
20
-41.42138775325526
30
0
10
-96.445382357454406
20
-40.862260625409391
30
0
10
-100.52260678677831
20
-39.973585839626203
30
0
10
-104.3601807433667
20
-38.693306409212454
30
0
10
-107.55849247981891
20
-36.859301039020316
30
0
10
-109.69175188074544
20
-34.324466293155879
30
0
10
-110.43084008971034
20
-31.068888280302204
30
0
10
-109.65453068579365
20
-27.295359673692175
30
0
10
-107.60306602574501
20
-23.577209622977687
30
0
10
-104.77782558515909
20
-20.696205692747164
30
0
10
-101.74313608769184
20
-19.356842180683746
30
0
10
-98.976369753062116
20
-19.968689313298817
30
0
10
-96.660878795850564
20
-22.336816295703059
30
0
10
-94.627639510128162
20
-25.604380217761676
30
0
10
-92.567815354889404
20
-28.660417305986293
30
0
10
-90.188033996067091
20
-30.449180665000103
30
0
10
-87.386138933763363
20
-30.314329963557572
30
0
10
-84.425029575907843
20
-28.341009493627748
30
0
10
-81.787751702557344
20
-25.105252008970421
30
0
10
-80.013529701022151
20
-21.388662115558862
30
0
10
-79.555148379475455
20
-17.93178728908936
30
0
10
-80.592777758816524
20
-15.108900068588182
30
0
10
-83.02013559138291
20
-12.914539798455674
30
0
10
-86.551622163074811
20
-11.171787159196738
30
0
10
-90.792054234253868
20
-9.6675971872731186
30
0
10
-95.325453342442728
20
-8.3350852906011479
30
0
10
-99.784409094044463
20
-7.3646213761562418
30
0
10
-103.86639563509873
20
-7.0655440874051276
30
0
10
-107.3569353401703
20
-7.7625698843058082
30
0
10
-110.15028755837228
20
-9.6785079987478539
30
0
10
-112.27102886879335
20
-12.823394665606196
30
0
10
-113.89591755588322
20
-16.8790945704487
30
0
10
-115.29717182419553
20
-21.322891924053739
30
0
10
-116.78649248148923
20
-25.548951246282918
30
0
10
-118.65636868497263
20
-28.996446548397024
30
0
10
-121.12817094073623
20
-31.261405142218038
30
0
10
-124.28342310841259
20
-32.248743548361062
30
0
10
-128.05622238900122
20
-32.178415018209861
30
0
10
-132.28907327163085
20
-31.441145889610873
30
0
10
-136.77262771135048
20
-30.491076494380881
30
0
10
-141.28993295936647
20
-29.730890094684327
30
0
10
-145.66355870166316
20
-29.382270201784802
30
0
10
-149.78603726425783
20
-29.419865637893793
30
0
10
-153.60191385103124
20
-29.683233132387841
30
0
10
-157.09895769636603
20
-29.955852800124056
30
0
10
-160.29582506309407
20
-30.055749266402806
30
0
10
-163.23111968384055
20
-29.924465255242268
30
0
10
-165.95224564478178
20
-29.707173826170123
30
0
10
-168.50896583648807
20
-29.6605244413125
30
0
10
-170.94712784058859
20
-30.077521930335195
30
0
10
-173.30115376488499
20
-31.193480887393047
30
0
10
-175.59106051357321
20
-33.142511710983442
30
0
10
-177.37989261735635
20
-35.423474264972356
30
0
10
-178.6987822577866
20
-37.550013768463756
30
0
10
-179.56794394308614
20
-39.152535046183914
30
0
10
-180
20
-40
30
0
0
ENDSEC
0
SECTION
2
OBJECTS
0
DICTIONARY
5
C
100
AcDbDictionary
3
ACAD_GROUP
350
D
3
ACAD_MLINESTYLE
350
17
0
DICTIONARY
5
D
100
AcDbDictionary
0
DICTIONARY
5
1A
330
C
100
AcDbDictionary
0
DICTIONARY
5
17
100
AcDbDictionary
0
ENDSEC
0
EOF
